<?xml version="1.0" encoding="utf-8"?><svg xml:space="preserve" viewBox="0 0 100 100" y="0" x="0" xmlns="http://www.w3.org/2000/svg" id="圖層_1" version="1.1" width="200px" height="200px" xmlns:xlink="http://www.w3.org/1999/xlink" style="width:100%;height:100%;background-size:initial;background-repeat-y:initial;background-repeat-x:initial;background-position-y:initial;background-position-x:initial;background-origin:initial;background-image:initial;background-color:rgb(255, 255, 255);background-clip:initial;background-attachment:initial;animation-play-state:paused" ><g class="ldl-scale" style="transform-origin:50% 50%;transform:rotate(0deg) scale(0.8, 0.8);animation-play-state:paused" ><path fill="#e15b64" clip-rule="evenodd" fill-rule="evenodd" d="M82.2 59c-3.3 2.8-13.7 8.5-16.7 11.6 6-6.2 11.9-13.5 11.7-22-.1-3.7-2-6.4-3.1-9.8-.6-1-1.2-1.9-1.8-2.9-2.2 4.4-5.6 8.5-9.1 12.5 3.5-6.7 4.3-14.4 1.7-21.3-.5-1.3-1.2-2.6-1.9-3.9-7.3-9.1-13.8-15.7-13.8-15.7s-9.6 10.3-18.3 22.9c-.1.1-.1.2-.2.4-1.2 2.4-2 4.9-2.6 7.5-1.1 5.2-1 10.5.3 15.6.5 1.9 1.5 7.9 4.2 8.6-3.1-.8-5.8-2.2-8.1-4.2-1.4-1.2-6.2-5.8-5-7.8-2 3.3-2 7.2-2 10.8C17.5 81.2 32.1 92 50 92s32.5-10.9 32.5-30.8c0-.8-.1-1.5-.2-2.3 0 .1-.1.1-.1.1z" style="fill:rgb(225, 91, 100);animation-play-state:paused" ></path>
<path fill="#f8b26a" d="M64.1 78.6c0-1.8-.5-4.6-1.4-6.3.5 1-1.3 3.7-1.6 4-.2.3-1.6 2.2-2.9 2.6 1.2-.4 1.5-3.4 1.7-4.4.5-2.7.1-5-.4-7.6-.2-1.3-.6-2.6-1.1-3.8 0-.1-.1-.1-.1-.2-3.7-6.4-7.9-11.6-7.9-11.6s-2.8 3.3-6 8c-.3.6-.6 1.3-.8 2-1.2 3.5-.8 7.4.7 10.8-1.5-2-3-4.1-3.9-6.3-.3.5-.5 1-.8 1.5-.5 1.7-1.3 3.1-1.4 5-.1 4.3 2.9 8.4 5.5 11.6-1.3-1.6-6.2-4.9-7.6-6.3l-.1-.1c0 .4-.1.8-.1 1.2 0 6 2.3 10.4 5.7 13 2.7.5 5.5.8 8.4.8s5.7-.3 8.4-.8c3.4-2.7 5.7-7.1 5.7-13.1z" style="fill:rgb(248, 178, 106);animation-play-state:paused" ></path>
<path fill="#f5e6c8" d="M61.4 83c.1-1.1.3-3.3-.5-4.6.4.8-1 2-2.1 2.8-1.1.7-1.8 1-2.9 1.3 1-.3 1.3-2.7 1.5-3.5.5-2.1.5-4.2.1-6.3-.2-1-.5-2-.9-3 0 0 0-.1-.1-.1-3-5.1-6.3-9.3-6.3-9.3S48 63 45.5 66.6c-.3.5-.5 1-.7 1.6-.9 2.8-.6 5.9.6 8.6-1.2-1.6-2.4-3.2-3.1-5l-.6 1.2c-.4 1.4-1.1 2.5-1.1 3.9-.1 3.4 2.3 6.7 4.4 9.2-1-1.2-4.9-3.9-6.1-5l-.1-.1c0 .3-.1.6-.1.9 0 4.6 1.6 8 4.1 10 2.3.4 4.6.6 7.1.6s4.8-.2 7.1-.6c2.6-2.1 4.3-7.9 4.4-8.9z" style="fill:rgb(245, 230, 200);animation-play-state:paused" ></path>
<metadata xmlns:d="https://loading.io/stock/" style="animation-play-state:paused" ><d:name style="animation-play-state:paused" >flame</d:name>
<d:tags style="animation-play-state:paused" >candle,camp,fire,cook,burn,ignite,furnace,flame,weather</d:tags>
<d:license style="animation-play-state:paused" >pro</d:license>
<d:slug style="animation-play-state:paused" >ccmorm</d:slug></metadata></g><!-- generated by https://loading.io/ --></svg>