<svg xmlns="http://www.w3.org/2000/svg" xmlns:xlink="http://www.w3.org/1999/xlink" viewBox="0 0 512 759.55"><defs><style>.cls-1{fill:url(#linear-gradient);}.cls-2,.cls-3,.cls-4{stroke-miterlimit:10;}.cls-2{stroke-width:10.32px;fill:url(#Chrysoprase_2);stroke:url(#Chrysoprase_2-2);}.cls-3{stroke-width:11.61px;fill:url(#Chrysoprase_5);stroke:url(#linear-gradient-2);}.cls-4{stroke-width:25.81px;fill:url(#linear-gradient-3);stroke:url(#linear-gradient-4);}.cls-5{fill:url(#linear-gradient-5);}.cls-6{fill:url(#linear-gradient-6);}.cls-7{fill:url(#Blue_Radial);}.cls-8{fill:url(#linear-gradient-7);}.cls-9{fill:#39b2c6;}.cls-10{fill:#7aedff;}.cls-11{fill:url(#linear-gradient-8);}.cls-12{fill:#92f2ff;}.cls-13{fill:#69f9f9;}.cls-14{fill:url(#Fade_To_Edge_White);}.cls-15{fill:url(#Fade_To_Edge_White-2);}.cls-16{fill:url(#linear-gradient-9);}.cls-17{fill:url(#linear-gradient-10);}.cls-18{fill:url(#linear-gradient-11);}.cls-19{fill:url(#linear-gradient-12);}.cls-20{opacity:0.6;fill:url(#Fade_To_Edge_White-3);}</style><linearGradient id="linear-gradient" x1="9.19" y1="379.78" x2="382.63" y2="379.78" gradientUnits="userSpaceOnUse"><stop offset="0" stop-color="#002842"/><stop offset="0.35" stop-color="#002a4f"/><stop offset="0.67" stop-color="#002b54"/><stop offset="1" stop-color="#002c45"/></linearGradient><linearGradient id="Chrysoprase_2" x1="72.78" y1="502.1" x2="240.68" y2="502.1" gradientUnits="userSpaceOnUse"><stop offset="0" stop-color="#006875"/><stop offset="0.5" stop-color="#09c1e2"/><stop offset="1" stop-color="#00a2ae"/></linearGradient><linearGradient id="Chrysoprase_2-2" x1="66.01" y1="499.62" x2="245.31" y2="499.62" xlink:href="#Chrysoprase_2"/><linearGradient id="Chrysoprase_5" x1="372.15" y1="311.03" x2="407.26" y2="311.03" gradientUnits="userSpaceOnUse"><stop offset="0" stop-color="#00485c"/><stop offset="0.5" stop-color="#08a1bd"/><stop offset="1" stop-color="#00a2ae"/></linearGradient><linearGradient id="linear-gradient-2" x1="363.42" y1="310.15" x2="412.02" y2="310.15" gradientUnits="userSpaceOnUse"><stop offset="0" stop-color="#00485c"/><stop offset="0.15" stop-color="#026379"/><stop offset="0.38" stop-color="#05849e"/><stop offset="0.56" stop-color="#0799b5"/><stop offset="0.67" stop-color="#08a1bd"/><stop offset="1" stop-color="#00a2ae"/></linearGradient><linearGradient id="linear-gradient-3" x1="205.99" y1="608.7" x2="288.31" y2="608.7" gradientUnits="userSpaceOnUse"><stop offset="0" stop-color="#00485c"/><stop offset="0.67" stop-color="#044b5e"/><stop offset="1" stop-color="#00a7cc"/></linearGradient><linearGradient id="linear-gradient-4" x1="198.11" y1="603.44" x2="312.73" y2="603.44" xlink:href="#linear-gradient-3"/><linearGradient id="linear-gradient-5" x1="26.9" y1="385.43" x2="487.3" y2="385.43" gradientUnits="userSpaceOnUse"><stop offset="0" stop-color="#8ce6ff"/><stop offset="0.03" stop-color="#76d1ee"/><stop offset="0.08" stop-color="#57b4d6"/><stop offset="0.13" stop-color="#3b9bc1"/><stop offset="0.19" stop-color="#2586b1"/><stop offset="0.26" stop-color="#1476a4"/><stop offset="0.35" stop-color="#096b9b"/><stop offset="0.48" stop-color="#026595"/><stop offset="0.83" stop-color="#006394"/><stop offset="1" stop-color="#8ce6ff"/></linearGradient><linearGradient id="linear-gradient-6" x1="77.94" y1="287.87" x2="226.35" y2="287.87" gradientUnits="userSpaceOnUse"><stop offset="0.06" stop-color="#28a7bc"/><stop offset="0.15" stop-color="#2dabc0"/><stop offset="0.25" stop-color="#3cb7cc"/><stop offset="0.36" stop-color="#55cbe0"/><stop offset="0.48" stop-color="#78e6fc"/><stop offset="0.49" stop-color="#7ce9ff"/><stop offset="0.56" stop-color="#65d7ed"/><stop offset="0.66" stop-color="#44bdd2"/><stop offset="0.75" stop-color="#2fadc2"/><stop offset="0.81" stop-color="#28a7bc"/></linearGradient><radialGradient id="Blue_Radial" cx="-5533.34" cy="3035.12" r="55.83" gradientTransform="translate(1285.69 -176.58) scale(0.2)" gradientUnits="userSpaceOnUse"><stop offset="0.01" stop-color="#d7f0fc"/><stop offset="0.45" stop-color="#abe1fa"/><stop offset="1" stop-color="#96cff1"/></radialGradient><linearGradient id="linear-gradient-7" x1="283.14" y1="290.45" x2="439.29" y2="290.45" xlink:href="#linear-gradient-6"/><linearGradient id="linear-gradient-8" x1="-76.21" y1="584.28" x2="591.8" y2="603.13" gradientUnits="userSpaceOnUse"><stop offset="0.28" stop-color="#2895bc"/><stop offset="0.31" stop-color="#2d99be"/><stop offset="0.35" stop-color="#3ca3c5"/><stop offset="0.39" stop-color="#55b5d0"/><stop offset="0.43" stop-color="#78cddf"/><stop offset="0.47" stop-color="#a4ecf3"/><stop offset="0.49" stop-color="#c0ffff"/><stop offset="0.53" stop-color="#93e0eb"/><stop offset="0.56" stop-color="#65c0d7"/><stop offset="0.6" stop-color="#44a8c8"/><stop offset="0.63" stop-color="#2f9abf"/><stop offset="0.64" stop-color="#2895bc"/></linearGradient><linearGradient id="Fade_To_Edge_White" x1="433.84" y1="432.41" x2="492.87" y2="432.41" gradientUnits="userSpaceOnUse"><stop offset="0" stop-color="#fff" stop-opacity="0"/><stop offset="0.5" stop-color="#fff"/><stop offset="1" stop-color="#fff" stop-opacity="0"/></linearGradient><linearGradient id="Fade_To_Edge_White-2" x1="26.32" y1="431.12" x2="77.94" y2="431.12" xlink:href="#Fade_To_Edge_White"/><linearGradient id="linear-gradient-9" x1="-8.06" y1="502.04" x2="512.63" y2="502.04" gradientUnits="userSpaceOnUse"><stop offset="0.28" stop-color="#2899bc"/><stop offset="0.31" stop-color="#2d9dbe"/><stop offset="0.35" stop-color="#3ca7c5"/><stop offset="0.39" stop-color="#55b7d0"/><stop offset="0.43" stop-color="#78cfdf"/><stop offset="0.47" stop-color="#a4ecf3"/><stop offset="0.49" stop-color="#c0ffff"/><stop offset="0.53" stop-color="#93e1eb"/><stop offset="0.56" stop-color="#65c2d7"/><stop offset="0.6" stop-color="#44acc8"/><stop offset="0.63" stop-color="#2f9ebf"/><stop offset="0.64" stop-color="#2899bc"/><stop offset="0.87" stop-color="#2899bc"/><stop offset="0.91" stop-color="#2899bc"/></linearGradient><linearGradient id="linear-gradient-10" x1="-10.29" y1="499.51" x2="537.9" y2="499.51" xlink:href="#linear-gradient-9"/><linearGradient id="linear-gradient-11" x1="70.2" y1="381.25" x2="245.3" y2="381.25" gradientUnits="userSpaceOnUse"><stop offset="0" stop-color="#00a7cc"/><stop offset="0.02" stop-color="#0098bc"/><stop offset="0.07" stop-color="#0080a1"/><stop offset="0.12" stop-color="#006c8b"/><stop offset="0.17" stop-color="#005d7a"/><stop offset="0.25" stop-color="#00526f"/><stop offset="0.35" stop-color="#004c68"/><stop offset="0.63" stop-color="#004a66"/><stop offset="1" stop-color="#00a7cc"/></linearGradient><linearGradient id="linear-gradient-12" x1="263.88" y1="371.28" x2="441.87" y2="371.28" xlink:href="#linear-gradient-11"/><linearGradient id="Fade_To_Edge_White-3" x1="70.23" y1="200.16" x2="356.77" y2="200.16" xlink:href="#Fade_To_Edge_White"/></defs><title>platinum tier no glow</title><g id="Layer_2" data-name="Layer 2"><g id="Layer_1-2" data-name="Layer 1"><path class="cls-1" d="M506.07,412.84l-34.36-57-18.48-30.63-38.36-63.6-11.45-18.91-8.69-14.48-20.56-34.08L256.22,0,66.92,315.43,5,417.67l-3.31,5.66L.55,425.12l-.55.69.14.27,28,66.78,8.14,19.45,16.83,40,21.93,52.29,8.28,19.59.55,1.24,64.71,50.08L211.37,724l34.08,26.21,12.14,9.38L312,719l119.34-89,30.35-78.09,42.63-109.27,3.45-8.83,4.14-10.76.14-.28ZM229.86,275.7l42.08-21.11h.13l7.18-3.59,23,104.44,1.52,6.63-47.74-28.42-51.6,28.42.28-1.24.41-2.07,19.18-80.3Z"/><path class="cls-2" d="M93,504.13,82.23,477.51l-9.18-22.62-.27.1L82,477.6l5.64,13.84.37.89L92.78,504l8.41,20.62,3.75,9.23,22,54Zm143.35,42.75-5.2-10.59L206.53,486.2l-23.77-48.36-7.91-16.09-1.09-2.18-1.61-3.29h0l-.08,0L186,444.62l50.36,102.27,4.33,8.76Z"/><path class="cls-3" d="M393.1,296.9l-2.32,1.15h0l-10.65,5.27-8.44,4.18,10.84,17.66h0l14-6.92h0l7.28-3.61Z"/><path class="cls-4" d="M247.78,569.36l-.73-2.49-.05-.17-3.6-12.43-2.09,1.06-.63.32.22.45,6.42,13.06,1,2Zm8.5,115.86-.22-.18h0l-.42-.31-21.32-16-18.36-13.83L206,647.37l9.79,7.55,18.36,14.17L256,686l.64-.47Zm31.8-153.69L281,535.12l-.93.48-.59.29-.41,2-.08.35-.4,1.89v0l-6,28.32-.31,1.46,0,.14-.78,3.64v0l1.6-4,.07-.16,13.93-35.1,1.19-3Z"/><polygon class="cls-5" points="256.22 44.1 26.9 430.42 104.52 613.87 257.98 726.77 411.45 617.4 487.3 426.89 256.22 44.1"/><polygon class="cls-6" points="226.35 163.33 165.7 372.4 77.94 412.4 226.35 163.33"/><polygon class="cls-7" points="185.99 444.62 172.05 416.31 172.15 416.28 185.99 444.62"/><polygon class="cls-8" points="439.29 417.57 342.5 372.4 335.69 348.39 329.96 328.21 283.14 163.33 371.69 307.51 382.53 325.17 382.55 325.17 439.29 417.57"/><polygon class="cls-9" points="205.16 358.76 204.75 360.82 205.02 358.89 205.16 358.76"/><polygon class="cls-10" points="303.81 362.07 256.07 333.65 204.47 362.07 204.75 360.82 205.16 358.76 224.34 278.46 229.86 275.7 271.94 254.59 272.07 254.59 279.25 251 302.29 355.44 303.81 362.07"/><polygon class="cls-10" points="279.25 251 272.07 254.59 271.94 254.59 229.86 275.7 224.34 278.46 253.03 157.88 255.79 146.56 256.07 145.32 257.45 151.53 263.93 180.78 266.56 192.78 273.59 224.79 279.25 251"/><polygon class="cls-11" points="420 504.03 401.06 553.15 387.71 587.83 387.67 587.91 265.04 682.67 257.98 687.96 126.98 587.91 93.02 504.13 245.71 569.85 258.62 576.3 272.3 570.05 272.81 569.85 273.12 569.68 381.54 521.22 420 504.03"/><polygon class="cls-12" points="310.15 389.94 306.7 407.32 292.22 480.86 287.53 497.97 270.69 559.36 268.9 565.98 266.56 572.61 259.38 593.03 256.62 600.34 256.07 602.13 255.24 600.34 245.58 577.3 242.55 570.12 241.86 568.61 241.72 568.19 236.89 548.05 236.75 547.91 235.37 542.12 211.64 444.85 203.37 416.01 197.02 391.73 197.02 391.59 220.2 294.74 224.06 278.6 231.93 245.76 245.31 190.02 253.03 157.88 224.34 278.46 205.16 358.76 205.02 358.89 204.75 360.82 204.47 362.07 256.22 331.63 303.81 362.07 302.29 355.44 279.25 251 273.59 224.79 279.39 250.87 310.15 389.94"/><polygon class="cls-13" points="203.32 415.97 196.67 393.05 196.99 391.7 203.32 415.97"/><polygon class="cls-13" points="310.24 390.46 298.56 445.78 289.41 478.94 310.13 389.98 310.24 390.46"/><polygon class="cls-14" points="439.29 417.57 487.04 427.89 441.87 447.25 439.29 417.57"/><polygon class="cls-15" points="77.94 412.4 26.32 430.47 70.2 449.83 77.94 412.4"/><polygon class="cls-16" points="77.95 468.44 86.51 488.72 92.85 504.04 92.99 504.18 255.24 600.2 255.24 600.34 256.07 600.75 246.13 578.68 245.58 577.3 242.69 571.09 241.31 567.92 185.98 444.57 177.7 427.6 173.7 419.6 172.05 416.29 165.7 403.32 119.2 425.26 70.92 449.54 70.23 449.81 77.95 468.44"/><polygon class="cls-17" points="441.87 447.25 420 504.03 377.34 529.84 256.04 600.82 279.26 545.33 296.04 504.03 341.21 398.21 441.87 447.25"/><polygon class="cls-18" points="203.32 415.97 243.13 572.43 165.7 403.37 70.2 449.83 77.94 412.4 165.7 372.4 214.74 205.92 245.3 190.07 196.67 390.46 196.99 391.7 203.32 415.97"/><polygon class="cls-19" points="441.87 447.25 341.86 402.73 267.65 572.43 289.41 478.94 310.13 389.98 310.24 389.51 263.88 180.76 285.07 170.13 342.5 372.4 439.29 417.57 441.87 447.25"/><path class="cls-20" d="M356.77,211.68l-11.44,6.07s-21.93,11-21.93,11.18l-6.21,3-8,4s-4.69,2.35-4.83,2.35L279.25,251s-7.18,3.59-7.31,3.59L229.86,275.7l-6.08,3-36.14,18.08s-12.56,6.34-12.7,6.48l-43,21.53-.55.27-1.94,1-.82.41-36.7,18.35-21.66,10.9,77-127.21s31.12-53.74,31.39-53.87l64.5-108.1,13-21.94c10.91,18.75,22.83,37.16,33.67,56C311.34,138,334.47,174.67,356.77,211.68Z"/></g></g></svg>